<svg version="1.1" xmlns="http://www.w3.org/2000/svg" viewBox="0 0 525.9326572863586 343.5039469195914" width="525.9326572863586" height="343.5039469195914" filter="invert(93%) hue-rotate(180deg)">
  <!-- svg-source:excalidraw -->
  
  <defs>
    <style class="style-fonts">
      @font-face {
        font-family: "Virgil";
        src: url("https://excalidraw.com/Virgil.woff2");
      }
      @font-face {
        font-family: "Cascadia";
        src: url("https://excalidraw.com/Cascadia.woff2");
      }
      @font-face {
        font-family: "Assistant";
        src: url("https://excalidraw.com/Assistant-Regular.woff2");
      }
    </style>
    
  </defs>
  <g stroke-linecap="round" transform="translate(172.70081049296982 90.97894220882984) rotate(0 109.95305914593393 112.92476344717534)"><path d="M219.91 112.92 C219.91 116.4, 219.75 119.89, 219.44 123.34 C219.13 126.8, 218.66 130.26, 218.03 133.67 C217.41 137.09, 216.63 140.49, 215.71 143.83 C214.78 147.17, 213.7 150.48, 212.48 153.72 C211.26 156.96, 209.89 160.15, 208.38 163.26 C206.87 166.37, 205.22 169.42, 203.44 172.37 C201.66 175.32, 199.74 178.21, 197.7 180.98 C195.66 183.75, 193.49 186.44, 191.21 189 C188.93 191.57, 186.53 194.04, 184.03 196.38 C181.53 198.72, 178.91 200.95, 176.21 203.04 C173.52 205.13, 170.71 207.11, 167.84 208.94 C164.96 210.76, 161.99 212.46, 158.96 214.01 C155.94 215.56, 152.83 216.97, 149.67 218.22 C146.52 219.48, 143.3 220.59, 140.04 221.54 C136.79 222.49, 133.48 223.29, 130.16 223.93 C126.83 224.56, 123.47 225.05, 120.1 225.37 C116.73 225.69, 113.33 225.85, 109.95 225.85 C106.57 225.85, 103.18 225.69, 99.81 225.37 C96.44 225.05, 93.07 224.56, 89.75 223.93 C86.43 223.29, 83.12 222.49, 79.86 221.54 C76.61 220.59, 73.39 219.48, 70.23 218.22 C67.08 216.97, 63.97 215.56, 60.94 214.01 C57.92 212.46, 54.95 210.76, 52.07 208.94 C49.2 207.11, 46.39 205.13, 43.69 203.04 C40.99 200.95, 38.38 198.72, 35.88 196.38 C33.38 194.04, 30.98 191.57, 28.7 189 C26.42 186.44, 24.25 183.75, 22.21 180.98 C20.17 178.21, 18.25 175.32, 16.47 172.37 C14.69 169.42, 13.03 166.37, 11.53 163.26 C10.02 160.15, 8.65 156.96, 7.42 153.72 C6.2 150.48, 5.12 147.17, 4.2 143.83 C3.27 140.49, 2.49 137.09, 1.87 133.67 C1.25 130.26, 0.78 126.8, 0.47 123.34 C0.16 119.89, 0 116.4, 0 112.92 C0 109.45, 0.16 105.96, 0.47 102.51 C0.78 99.05, 1.25 95.59, 1.87 92.17 C2.49 88.76, 3.27 85.36, 4.2 82.02 C5.12 78.68, 6.2 75.37, 7.42 72.13 C8.65 68.89, 10.02 65.7, 11.53 62.59 C13.03 59.48, 14.69 56.43, 16.47 53.48 C18.25 50.52, 20.17 47.64, 22.21 44.87 C24.25 42.1, 26.42 39.41, 28.7 36.85 C30.98 34.28, 33.38 31.81, 35.88 29.47 C38.38 27.13, 40.99 24.9, 43.69 22.81 C46.39 20.72, 49.2 18.74, 52.07 16.91 C54.95 15.09, 57.92 13.39, 60.94 11.84 C63.97 10.29, 67.08 8.88, 70.23 7.63 C73.39 6.37, 76.61 5.26, 79.86 4.31 C83.12 3.36, 86.43 2.56, 89.75 1.92 C93.07 1.28, 96.44 0.8, 99.81 0.48 C103.18 0.16, 106.57 0, 109.95 0 C113.33 0, 116.73 0.16, 120.1 0.48 C123.47 0.8, 126.83 1.28, 130.16 1.92 C133.48 2.56, 136.79 3.36, 140.04 4.31 C143.3 5.26, 146.52 6.37, 149.67 7.63 C152.83 8.88, 155.94 10.29, 158.96 11.84 C161.99 13.39, 164.96 15.09, 167.84 16.91 C170.71 18.74, 173.52 20.72, 176.21 22.81 C178.91 24.9, 181.53 27.13, 184.03 29.47 C186.53 31.81, 188.93 34.28, 191.21 36.85 C193.49 39.41, 195.66 42.1, 197.7 44.87 C199.74 47.64, 201.66 50.52, 203.44 53.48 C205.22 56.43, 206.87 59.48, 208.38 62.59 C209.89 65.7, 211.26 68.89, 212.48 72.13 C213.7 75.37, 214.78 78.68, 215.71 82.02 C216.63 85.36, 217.41 88.76, 218.03 92.17 C218.66 95.59, 219.13 99.05, 219.44 102.51 C219.75 105.96, 219.83 111.19, 219.91 112.92 C219.98 114.66, 219.98 111.19, 219.91 112.92" stroke="none" stroke-width="0" fill="#ffc9c9"></path><path d="M219.91 112.92 C219.91 116.4, 219.75 119.89, 219.44 123.34 C219.13 126.8, 218.66 130.26, 218.03 133.67 C217.41 137.09, 216.63 140.49, 215.71 143.83 C214.78 147.17, 213.7 150.48, 212.48 153.72 C211.26 156.96, 209.89 160.15, 208.38 163.26 C206.87 166.37, 205.22 169.42, 203.44 172.37 C201.66 175.32, 199.74 178.21, 197.7 180.98 C195.66 183.75, 193.49 186.44, 191.21 189 C188.93 191.57, 186.53 194.04, 184.03 196.38 C181.53 198.72, 178.91 200.95, 176.21 203.04 C173.52 205.13, 170.71 207.11, 167.84 208.94 C164.96 210.76, 161.99 212.46, 158.96 214.01 C155.94 215.56, 152.83 216.97, 149.67 218.22 C146.52 219.48, 143.3 220.59, 140.04 221.54 C136.79 222.49, 133.48 223.29, 130.16 223.93 C126.83 224.56, 123.47 225.05, 120.1 225.37 C116.73 225.69, 113.33 225.85, 109.95 225.85 C106.57 225.85, 103.18 225.69, 99.81 225.37 C96.44 225.05, 93.07 224.56, 89.75 223.93 C86.43 223.29, 83.12 222.49, 79.86 221.54 C76.61 220.59, 73.39 219.48, 70.23 218.22 C67.08 216.97, 63.97 215.56, 60.94 214.01 C57.92 212.46, 54.95 210.76, 52.07 208.94 C49.2 207.11, 46.39 205.13, 43.69 203.04 C40.99 200.95, 38.38 198.72, 35.88 196.38 C33.38 194.04, 30.98 191.57, 28.7 189 C26.42 186.44, 24.25 183.75, 22.21 180.98 C20.17 178.21, 18.25 175.32, 16.47 172.37 C14.69 169.42, 13.03 166.37, 11.53 163.26 C10.02 160.15, 8.65 156.96, 7.42 153.72 C6.2 150.48, 5.12 147.17, 4.2 143.83 C3.27 140.49, 2.49 137.09, 1.87 133.67 C1.25 130.26, 0.78 126.8, 0.47 123.34 C0.16 119.89, 0 116.4, 0 112.92 C0 109.45, 0.16 105.96, 0.47 102.51 C0.78 99.05, 1.25 95.59, 1.87 92.17 C2.49 88.76, 3.27 85.36, 4.2 82.02 C5.12 78.68, 6.2 75.37, 7.42 72.13 C8.65 68.89, 10.02 65.7, 11.53 62.59 C13.03 59.48, 14.69 56.43, 16.47 53.48 C18.25 50.52, 20.17 47.64, 22.21 44.87 C24.25 42.1, 26.42 39.41, 28.7 36.85 C30.98 34.28, 33.38 31.81, 35.88 29.47 C38.38 27.13, 40.99 24.9, 43.69 22.81 C46.39 20.72, 49.2 18.74, 52.07 16.91 C54.95 15.09, 57.92 13.39, 60.94 11.84 C63.97 10.29, 67.08 8.88, 70.23 7.63 C73.39 6.37, 76.61 5.26, 79.86 4.31 C83.12 3.36, 86.43 2.56, 89.75 1.92 C93.07 1.28, 96.44 0.8, 99.81 0.48 C103.18 0.16, 106.57 0, 109.95 0 C113.33 0, 116.73 0.16, 120.1 0.48 C123.47 0.8, 126.83 1.28, 130.16 1.92 C133.48 2.56, 136.79 3.36, 140.04 4.31 C143.3 5.26, 146.52 6.37, 149.67 7.63 C152.83 8.88, 155.94 10.29, 158.96 11.84 C161.99 13.39, 164.96 15.09, 167.84 16.91 C170.71 18.74, 173.52 20.72, 176.21 22.81 C178.91 24.9, 181.53 27.13, 184.03 29.47 C186.53 31.81, 188.93 34.28, 191.21 36.85 C193.49 39.41, 195.66 42.1, 197.7 44.87 C199.74 47.64, 201.66 50.52, 203.44 53.48 C205.22 56.43, 206.87 59.48, 208.38 62.59 C209.89 65.7, 211.26 68.89, 212.48 72.13 C213.7 75.37, 214.78 78.68, 215.71 82.02 C216.63 85.36, 217.41 88.76, 218.03 92.17 C218.66 95.59, 219.13 99.05, 219.44 102.51 C219.75 105.96, 219.83 111.19, 219.91 112.92 C219.98 114.66, 219.98 111.19, 219.91 112.92" stroke="#1e1e1e" stroke-width="1" fill="none"></path></g><g transform="translate(234.8053174304872 164.05383965862075) rotate(0 47.599998474121094 40)"><text x="47.599998474121094" y="0" font-family="Virgil, Segoe UI Emoji" font-size="16px" fill="#1e1e1e" text-anchor="middle" style="white-space: pre;" direction="ltr" dominant-baseline="text-before-edge">Clasificación</text><text x="47.599998474121094" y="20" font-family="Virgil, Segoe UI Emoji" font-size="16px" fill="#1e1e1e" text-anchor="middle" style="white-space: pre;" direction="ltr" dominant-baseline="text-before-edge">del</text><text x="47.599998474121094" y="40" font-family="Virgil, Segoe UI Emoji" font-size="16px" fill="#1e1e1e" text-anchor="middle" style="white-space: pre;" direction="ltr" dominant-baseline="text-before-edge">paralelismo</text><text x="47.599998474121094" y="60" font-family="Virgil, Segoe UI Emoji" font-size="16px" fill="#1e1e1e" text-anchor="middle" style="white-space: pre;" direction="ltr" dominant-baseline="text-before-edge">implícito</text></g><g stroke-opacity="0.9" fill-opacity="0.9" stroke-linecap="round" transform="translate(129.61109812496898 10) rotate(0 149.69960417503842 66.50932257765373)"><path d="M299.4 66.51 C299.4 68.44, 299.21 70.38, 298.83 72.31 C298.45 74.23, 297.88 76.16, 297.12 78.06 C296.37 79.96, 295.42 81.86, 294.3 83.72 C293.17 85.59, 291.86 87.44, 290.37 89.26 C288.88 91.07, 287.21 92.87, 285.37 94.62 C283.54 96.37, 281.52 98.09, 279.34 99.76 C277.17 101.44, 274.82 103.07, 272.33 104.66 C269.83 106.24, 267.17 107.78, 264.38 109.26 C261.58 110.74, 258.63 112.17, 255.55 113.54 C252.48 114.9, 249.26 116.22, 245.92 117.46 C242.59 118.7, 239.13 119.88, 235.56 120.99 C232 122.1, 228.32 123.14, 224.55 124.11 C220.78 125.07, 216.91 125.97, 212.97 126.79 C209.02 127.6, 204.99 128.35, 200.9 129.01 C196.81 129.67, 192.65 130.25, 188.44 130.75 C184.24 131.25, 179.98 131.67, 175.69 132.01 C171.41 132.34, 167.08 132.6, 162.75 132.77 C158.41 132.93, 154.05 133.02, 149.7 133.02 C145.35 133.02, 140.98 132.93, 136.65 132.77 C132.32 132.6, 127.99 132.34, 123.7 132.01 C119.42 131.67, 115.16 131.25, 110.95 130.75 C106.75 130.25, 102.59 129.67, 98.5 129.01 C94.41 128.35, 90.38 127.6, 86.43 126.79 C82.49 125.97, 78.62 125.07, 74.85 124.11 C71.08 123.14, 67.4 122.1, 63.84 120.99 C60.27 119.88, 56.81 118.7, 53.47 117.46 C50.14 116.22, 46.92 114.9, 43.85 113.54 C40.77 112.17, 37.82 110.74, 35.02 109.26 C32.23 107.78, 29.57 106.24, 27.07 104.66 C24.58 103.07, 22.23 101.44, 20.06 99.76 C17.88 98.09, 15.86 96.37, 14.03 94.62 C12.19 92.87, 10.52 91.07, 9.03 89.26 C7.54 87.44, 6.23 85.59, 5.1 83.72 C3.98 81.86, 3.03 79.96, 2.27 78.06 C1.52 76.16, 0.95 74.23, 0.57 72.31 C0.19 70.38, 0 68.44, 0 66.51 C0 64.58, 0.19 62.64, 0.57 60.71 C0.95 58.79, 1.52 56.86, 2.27 54.96 C3.03 53.06, 3.98 51.16, 5.1 49.3 C6.23 47.43, 7.54 45.58, 9.03 43.76 C10.52 41.95, 12.19 40.15, 14.03 38.4 C15.86 36.65, 17.88 34.93, 20.06 33.25 C22.23 31.58, 24.58 29.94, 27.07 28.36 C29.57 26.78, 32.23 25.24, 35.02 23.76 C37.82 22.28, 40.77 20.85, 43.85 19.48 C46.92 18.11, 50.14 16.8, 53.47 15.56 C56.81 14.32, 60.27 13.14, 63.84 12.03 C67.4 10.92, 71.08 9.88, 74.85 8.91 C78.62 7.94, 82.49 7.05, 86.43 6.23 C90.38 5.41, 94.41 4.67, 98.5 4.01 C102.59 3.35, 106.75 2.77, 110.95 2.27 C115.16 1.77, 119.42 1.35, 123.7 1.01 C127.99 0.67, 132.32 0.42, 136.65 0.25 C140.98 0.08, 145.35 0, 149.7 0 C154.05 0, 158.41 0.08, 162.75 0.25 C167.08 0.42, 171.41 0.67, 175.69 1.01 C179.98 1.35, 184.24 1.77, 188.44 2.27 C192.65 2.77, 196.81 3.35, 200.9 4.01 C204.99 4.67, 209.02 5.41, 212.97 6.23 C216.91 7.05, 220.78 7.94, 224.55 8.91 C228.32 9.88, 232 10.92, 235.56 12.03 C239.13 13.14, 242.59 14.32, 245.92 15.56 C249.26 16.8, 252.48 18.11, 255.55 19.48 C258.63 20.85, 261.58 22.28, 264.38 23.76 C267.17 25.24, 269.83 26.78, 272.33 28.36 C274.82 29.94, 277.17 31.58, 279.34 33.25 C281.52 34.93, 283.54 36.65, 285.37 38.4 C287.21 40.15, 288.88 41.95, 290.37 43.76 C291.86 45.58, 293.17 47.43, 294.3 49.3 C295.42 51.16, 296.37 53.06, 297.12 54.96 C297.88 56.86, 298.45 58.79, 298.83 60.71 C299.21 62.64, 299.3 65.54, 299.4 66.51 C299.49 67.48, 299.49 65.54, 299.4 66.51" stroke="none" stroke-width="0" fill="#a5d8ff"></path><path d="M299.4 66.51 C299.4 68.44, 299.21 70.38, 298.83 72.31 C298.45 74.23, 297.88 76.16, 297.12 78.06 C296.37 79.96, 295.42 81.86, 294.3 83.72 C293.17 85.59, 291.86 87.44, 290.37 89.26 C288.88 91.07, 287.21 92.87, 285.37 94.62 C283.54 96.37, 281.52 98.09, 279.34 99.76 C277.17 101.44, 274.82 103.07, 272.33 104.66 C269.83 106.24, 267.17 107.78, 264.38 109.26 C261.58 110.74, 258.63 112.17, 255.55 113.54 C252.48 114.9, 249.26 116.22, 245.92 117.46 C242.59 118.7, 239.13 119.88, 235.56 120.99 C232 122.1, 228.32 123.14, 224.55 124.11 C220.78 125.07, 216.91 125.97, 212.97 126.79 C209.02 127.6, 204.99 128.35, 200.9 129.01 C196.81 129.67, 192.65 130.25, 188.44 130.75 C184.24 131.25, 179.98 131.67, 175.69 132.01 C171.41 132.34, 167.08 132.6, 162.75 132.77 C158.41 132.93, 154.05 133.02, 149.7 133.02 C145.35 133.02, 140.98 132.93, 136.65 132.77 C132.32 132.6, 127.99 132.34, 123.7 132.01 C119.42 131.67, 115.16 131.25, 110.95 130.75 C106.75 130.25, 102.59 129.67, 98.5 129.01 C94.41 128.35, 90.38 127.6, 86.43 126.79 C82.49 125.97, 78.62 125.07, 74.85 124.11 C71.08 123.14, 67.4 122.1, 63.84 120.99 C60.27 119.88, 56.81 118.7, 53.47 117.46 C50.14 116.22, 46.92 114.9, 43.85 113.54 C40.77 112.17, 37.82 110.74, 35.02 109.26 C32.23 107.78, 29.57 106.24, 27.07 104.66 C24.58 103.07, 22.23 101.44, 20.06 99.76 C17.88 98.09, 15.86 96.37, 14.03 94.62 C12.19 92.87, 10.52 91.07, 9.03 89.26 C7.54 87.44, 6.23 85.59, 5.1 83.72 C3.98 81.86, 3.03 79.96, 2.27 78.06 C1.52 76.16, 0.95 74.23, 0.57 72.31 C0.19 70.38, 0 68.44, 0 66.51 C0 64.58, 0.19 62.64, 0.57 60.71 C0.95 58.79, 1.52 56.86, 2.27 54.96 C3.03 53.06, 3.98 51.16, 5.1 49.3 C6.23 47.43, 7.54 45.58, 9.03 43.76 C10.52 41.95, 12.19 40.15, 14.03 38.4 C15.86 36.65, 17.88 34.93, 20.06 33.25 C22.23 31.58, 24.58 29.94, 27.07 28.36 C29.57 26.78, 32.23 25.24, 35.02 23.76 C37.82 22.28, 40.77 20.85, 43.85 19.48 C46.92 18.11, 50.14 16.8, 53.47 15.56 C56.81 14.32, 60.27 13.14, 63.84 12.03 C67.4 10.92, 71.08 9.88, 74.85 8.91 C78.62 7.94, 82.49 7.05, 86.43 6.23 C90.38 5.41, 94.41 4.67, 98.5 4.01 C102.59 3.35, 106.75 2.77, 110.95 2.27 C115.16 1.77, 119.42 1.35, 123.7 1.01 C127.99 0.67, 132.32 0.42, 136.65 0.25 C140.98 0.08, 145.35 0, 149.7 0 C154.05 0, 158.41 0.08, 162.75 0.25 C167.08 0.42, 171.41 0.67, 175.69 1.01 C179.98 1.35, 184.24 1.77, 188.44 2.27 C192.65 2.77, 196.81 3.35, 200.9 4.01 C204.99 4.67, 209.02 5.41, 212.97 6.23 C216.91 7.05, 220.78 7.94, 224.55 8.91 C228.32 9.88, 232 10.92, 235.56 12.03 C239.13 13.14, 242.59 14.32, 245.92 15.56 C249.26 16.8, 252.48 18.11, 255.55 19.48 C258.63 20.85, 261.58 22.28, 264.38 23.76 C267.17 25.24, 269.83 26.78, 272.33 28.36 C274.82 29.94, 277.17 31.58, 279.34 33.25 C281.52 34.93, 283.54 36.65, 285.37 38.4 C287.21 40.15, 288.88 41.95, 290.37 43.76 C291.86 45.58, 293.17 47.43, 294.3 49.3 C295.42 51.16, 296.37 53.06, 297.12 54.96 C297.88 56.86, 298.45 58.79, 298.83 60.71 C299.21 62.64, 299.3 65.54, 299.4 66.51 C299.49 67.48, 299.49 65.54, 299.4 66.51" stroke="#1e1e1e" stroke-width="1" fill="none"></path></g><g stroke-opacity="0.9" fill-opacity="0.9" transform="translate(195.8821000986535 36.48012957087121) rotate(0 83.57499694824213 40)"><text x="83.57499694824219" y="0" font-family="Virgil, Segoe UI Emoji" font-size="16px" fill="#1e1e1e" text-anchor="middle" style="white-space: pre;" direction="ltr" dominant-baseline="text-before-edge">Niveles de</text><text x="83.57499694824219" y="20" font-family="Virgil, Segoe UI Emoji" font-size="16px" fill="#1e1e1e" text-anchor="middle" style="white-space: pre;" direction="ltr" dominant-baseline="text-before-edge">paralelismo implícito</text><text x="83.57499694824219" y="40" font-family="Virgil, Segoe UI Emoji" font-size="16px" fill="#1e1e1e" text-anchor="middle" style="white-space: pre;" direction="ltr" dominant-baseline="text-before-edge">en un código que</text><text x="83.57499694824219" y="60" font-family="Virgil, Segoe UI Emoji" font-size="16px" fill="#1e1e1e" text-anchor="middle" style="white-space: pre;" direction="ltr" dominant-baseline="text-before-edge">resuelve la aplicación</text></g><g stroke-opacity="0.8" fill-opacity="0.8" stroke-linecap="round" transform="translate(333.1728427600085 202.04639046772922) rotate(0 91.37990726317491 62.77725336372578)"><path d="M182.76 62.78 C182.76 64.96, 182.59 67.16, 182.26 69.34 C181.93 71.51, 181.42 73.69, 180.76 75.83 C180.1 77.97, 179.27 80.1, 178.29 82.18 C177.3 84.26, 176.15 86.31, 174.86 88.31 C173.56 90.31, 172.11 92.27, 170.52 94.17 C168.93 96.06, 167.18 97.91, 165.31 99.68 C163.44 101.45, 161.42 103.16, 159.29 104.78 C157.16 106.41, 154.89 107.97, 152.53 109.43 C150.16 110.89, 147.67 112.28, 145.09 113.57 C142.52 114.85, 139.83 116.05, 137.07 117.14 C134.31 118.24, 131.46 119.24, 128.55 120.13 C125.64 121.02, 122.65 121.81, 119.62 122.48 C116.59 123.16, 113.49 123.73, 110.38 124.18 C107.26 124.64, 104.1 124.98, 100.93 125.21 C97.77 125.44, 94.56 125.55, 91.38 125.55 C88.2 125.55, 84.99 125.44, 81.83 125.21 C78.66 124.98, 75.5 124.64, 72.38 124.18 C69.27 123.73, 66.17 123.16, 63.14 122.48 C60.11 121.81, 57.12 121.02, 54.21 120.13 C51.3 119.24, 48.45 118.24, 45.69 117.14 C42.93 116.05, 40.24 114.85, 37.67 113.57 C35.09 112.28, 32.6 110.89, 30.23 109.43 C27.87 107.97, 25.6 106.41, 23.47 104.78 C21.34 103.16, 19.32 101.45, 17.45 99.68 C15.58 97.91, 13.83 96.06, 12.24 94.17 C10.65 92.27, 9.2 90.31, 7.9 88.31 C6.61 86.31, 5.46 84.26, 4.47 82.18 C3.49 80.1, 2.66 77.97, 2 75.83 C1.33 73.69, 0.83 71.51, 0.5 69.34 C0.17 67.16, 0 64.96, 0 62.78 C0 60.59, 0.17 58.39, 0.5 56.22 C0.83 54.04, 1.33 51.86, 2 49.73 C2.66 47.59, 3.49 45.46, 4.47 43.38 C5.46 41.3, 6.61 39.24, 7.9 37.24 C9.2 35.25, 10.65 33.28, 12.24 31.39 C13.83 29.49, 15.58 27.65, 17.45 25.88 C19.32 24.11, 21.34 22.4, 23.47 20.77 C25.6 19.15, 27.87 17.59, 30.23 16.12 C32.6 14.66, 35.09 13.28, 37.67 11.99 C40.24 10.7, 42.93 9.5, 45.69 8.41 C48.45 7.32, 51.3 6.32, 54.21 5.43 C57.12 4.54, 60.11 3.75, 63.14 3.07 C66.17 2.4, 69.27 1.83, 72.38 1.37 C75.5 0.92, 78.66 0.57, 81.83 0.34 C84.99 0.12, 88.2 0, 91.38 0 C94.56 0, 97.77 0.12, 100.93 0.34 C104.1 0.57, 107.26 0.92, 110.38 1.37 C113.49 1.83, 116.59 2.4, 119.62 3.07 C122.65 3.75, 125.64 4.54, 128.55 5.43 C131.46 6.32, 134.31 7.32, 137.07 8.41 C139.83 9.5, 142.52 10.7, 145.09 11.99 C147.67 13.28, 150.16 14.66, 152.53 16.12 C154.89 17.59, 157.16 19.15, 159.29 20.77 C161.42 22.4, 163.44 24.11, 165.31 25.88 C167.18 27.65, 168.93 29.49, 170.52 31.39 C172.11 33.28, 173.56 35.25, 174.86 37.24 C176.15 39.24, 177.3 41.3, 178.29 43.38 C179.27 45.46, 180.1 47.59, 180.76 49.73 C181.42 51.86, 181.93 54.04, 182.26 56.22 C182.59 58.39, 182.68 61.68, 182.76 62.78 C182.84 63.87, 182.84 61.68, 182.76 62.78" stroke="none" stroke-width="0" fill="#b2f2bb"></path><path d="M182.76 62.78 C182.76 64.96, 182.59 67.16, 182.26 69.34 C181.93 71.51, 181.42 73.69, 180.76 75.83 C180.1 77.97, 179.27 80.1, 178.29 82.18 C177.3 84.26, 176.15 86.31, 174.86 88.31 C173.56 90.31, 172.11 92.27, 170.52 94.17 C168.93 96.06, 167.18 97.91, 165.31 99.68 C163.44 101.45, 161.42 103.16, 159.29 104.78 C157.16 106.41, 154.89 107.97, 152.53 109.43 C150.16 110.89, 147.67 112.28, 145.09 113.57 C142.52 114.85, 139.83 116.05, 137.07 117.14 C134.31 118.24, 131.46 119.24, 128.55 120.13 C125.64 121.02, 122.65 121.81, 119.62 122.48 C116.59 123.16, 113.49 123.73, 110.38 124.18 C107.26 124.64, 104.1 124.98, 100.93 125.21 C97.77 125.44, 94.56 125.55, 91.38 125.55 C88.2 125.55, 84.99 125.44, 81.83 125.21 C78.66 124.98, 75.5 124.64, 72.38 124.18 C69.27 123.73, 66.17 123.16, 63.14 122.48 C60.11 121.81, 57.12 121.02, 54.21 120.13 C51.3 119.24, 48.45 118.24, 45.69 117.14 C42.93 116.05, 40.24 114.85, 37.67 113.57 C35.09 112.28, 32.6 110.89, 30.23 109.43 C27.87 107.97, 25.6 106.41, 23.47 104.78 C21.34 103.16, 19.32 101.45, 17.45 99.68 C15.58 97.91, 13.83 96.06, 12.24 94.17 C10.65 92.27, 9.2 90.31, 7.9 88.31 C6.61 86.31, 5.46 84.26, 4.47 82.18 C3.49 80.1, 2.66 77.97, 2 75.83 C1.33 73.69, 0.83 71.51, 0.5 69.34 C0.17 67.16, 0 64.96, 0 62.78 C0 60.59, 0.17 58.39, 0.5 56.22 C0.83 54.04, 1.33 51.86, 2 49.73 C2.66 47.59, 3.49 45.46, 4.47 43.38 C5.46 41.3, 6.61 39.24, 7.9 37.24 C9.2 35.25, 10.65 33.28, 12.24 31.39 C13.83 29.49, 15.58 27.65, 17.45 25.88 C19.32 24.11, 21.34 22.4, 23.47 20.77 C25.6 19.15, 27.87 17.59, 30.23 16.12 C32.6 14.66, 35.09 13.28, 37.67 11.99 C40.24 10.7, 42.93 9.5, 45.69 8.41 C48.45 7.32, 51.3 6.32, 54.21 5.43 C57.12 4.54, 60.11 3.75, 63.14 3.07 C66.17 2.4, 69.27 1.83, 72.38 1.37 C75.5 0.92, 78.66 0.57, 81.83 0.34 C84.99 0.12, 88.2 0, 91.38 0 C94.56 0, 97.77 0.12, 100.93 0.34 C104.1 0.57, 107.26 0.92, 110.38 1.37 C113.49 1.83, 116.59 2.4, 119.62 3.07 C122.65 3.75, 125.64 4.54, 128.55 5.43 C131.46 6.32, 134.31 7.32, 137.07 8.41 C139.83 9.5, 142.52 10.7, 145.09 11.99 C147.67 13.28, 150.16 14.66, 152.53 16.12 C154.89 17.59, 157.16 19.15, 159.29 20.77 C161.42 22.4, 163.44 24.11, 165.31 25.88 C167.18 27.65, 168.93 29.49, 170.52 31.39 C172.11 33.28, 173.56 35.25, 174.86 37.24 C176.15 39.24, 177.3 41.3, 178.29 43.38 C179.27 45.46, 180.1 47.59, 180.76 49.73 C181.42 51.86, 181.93 54.04, 182.26 56.22 C182.59 58.39, 182.68 61.68, 182.76 62.78 C182.84 63.87, 182.84 61.68, 182.76 62.78" stroke="#1e1e1e" stroke-width="1" fill="none"></path></g><g stroke-opacity="0.8" fill-opacity="0.8" transform="translate(374.02072999496227 254.9334222736985) rotate(0 50.41666793823242 10)"><text x="50.41666793823242" y="0" font-family="Virgil, Segoe UI Emoji" font-size="16px" fill="#1e1e1e" text-anchor="middle" style="white-space: pre;" direction="ltr" dominant-baseline="text-before-edge">Granularidad</text></g><g stroke-opacity="0.9" fill-opacity="0.9" stroke-linecap="round" transform="translate(10 206.50394691959139) rotate(0 118.49670901200318 63.5)"><path d="M236.99 63.5 C236.99 65.57, 236.8 67.66, 236.42 69.72 C236.04 71.79, 235.47 73.85, 234.72 75.89 C233.96 77.92, 233.01 79.95, 231.89 81.93 C230.77 83.92, 229.45 85.88, 227.97 87.8 C226.49 89.72, 224.83 91.6, 223 93.43 C221.18 95.26, 219.17 97.05, 217.02 98.78 C214.87 100.5, 212.55 102.18, 210.1 103.78 C207.64 105.39, 205.02 106.93, 202.29 108.4 C199.55 109.87, 196.66 111.27, 193.67 112.59 C190.68 113.9, 187.55 115.15, 184.33 116.3 C181.11 117.45, 177.77 118.52, 174.36 119.5 C170.94 120.48, 167.42 121.37, 163.84 122.17 C160.27 122.96, 156.6 123.66, 152.89 124.27 C149.19 124.87, 145.41 125.38, 141.61 125.78 C137.82 126.18, 133.96 126.49, 130.11 126.69 C126.26 126.9, 122.37 127, 118.5 127 C114.63 127, 110.73 126.9, 106.88 126.69 C103.03 126.49, 99.18 126.18, 95.38 125.78 C91.58 125.38, 87.8 124.87, 84.1 124.27 C80.39 123.66, 76.73 122.96, 73.15 122.17 C69.57 121.37, 66.05 120.48, 62.64 119.5 C59.22 118.52, 55.88 117.45, 52.66 116.3 C49.44 115.15, 46.32 113.9, 43.32 112.59 C40.33 111.27, 37.44 109.87, 34.71 108.4 C31.97 106.93, 29.35 105.39, 26.9 103.78 C24.44 102.18, 22.12 100.5, 19.97 98.78 C17.82 97.05, 15.82 95.26, 13.99 93.43 C12.17 91.6, 10.5 89.72, 9.02 87.8 C7.54 85.88, 6.23 83.92, 5.1 81.93 C3.98 79.95, 3.03 77.92, 2.28 75.89 C1.52 73.85, 0.95 71.79, 0.57 69.72 C0.19 67.66, 0 65.57, 0 63.5 C0 61.43, 0.19 59.34, 0.57 57.28 C0.95 55.21, 1.52 53.15, 2.28 51.11 C3.03 49.08, 3.98 47.05, 5.1 45.07 C6.23 43.08, 7.54 41.12, 9.02 39.2 C10.5 37.28, 12.17 35.4, 13.99 33.57 C15.82 31.74, 17.82 29.95, 19.97 28.22 C22.12 26.5, 24.44 24.82, 26.9 23.22 C29.35 21.61, 31.97 20.07, 34.71 18.6 C37.44 17.13, 40.33 15.73, 43.32 14.41 C46.32 13.1, 49.44 11.85, 52.66 10.7 C55.88 9.55, 59.22 8.48, 62.64 7.5 C66.05 6.52, 69.57 5.63, 73.15 4.83 C76.73 4.04, 80.39 3.34, 84.1 2.73 C87.8 2.13, 91.58 1.62, 95.38 1.22 C99.18 0.82, 103.03 0.51, 106.88 0.31 C110.73 0.1, 114.63 0, 118.5 0 C122.37 0, 126.26 0.1, 130.11 0.31 C133.96 0.51, 137.82 0.82, 141.61 1.22 C145.41 1.62, 149.19 2.13, 152.89 2.73 C156.6 3.34, 160.27 4.04, 163.84 4.83 C167.42 5.63, 170.94 6.52, 174.36 7.5 C177.77 8.48, 181.11 9.55, 184.33 10.7 C187.55 11.85, 190.68 13.1, 193.67 14.41 C196.66 15.73, 199.55 17.13, 202.29 18.6 C205.02 20.07, 207.64 21.61, 210.1 23.22 C212.55 24.82, 214.87 26.5, 217.02 28.22 C219.17 29.95, 221.18 31.74, 223 33.57 C224.83 35.4, 226.49 37.28, 227.97 39.2 C229.45 41.12, 230.77 43.08, 231.89 45.07 C233.01 47.05, 233.96 49.08, 234.72 51.11 C235.47 53.15, 236.04 55.21, 236.42 57.28 C236.8 59.34, 236.9 62.46, 236.99 63.5 C237.09 64.54, 237.09 62.46, 236.99 63.5" stroke="none" stroke-width="0" fill="#eebefa"></path><path d="M236.99 63.5 C236.99 65.57, 236.8 67.66, 236.42 69.72 C236.04 71.79, 235.47 73.85, 234.72 75.89 C233.96 77.92, 233.01 79.95, 231.89 81.93 C230.77 83.92, 229.45 85.88, 227.97 87.8 C226.49 89.72, 224.83 91.6, 223 93.43 C221.18 95.26, 219.17 97.05, 217.02 98.78 C214.87 100.5, 212.55 102.18, 210.1 103.78 C207.64 105.39, 205.02 106.93, 202.29 108.4 C199.55 109.87, 196.66 111.27, 193.67 112.59 C190.68 113.9, 187.55 115.15, 184.33 116.3 C181.11 117.45, 177.77 118.52, 174.36 119.5 C170.94 120.48, 167.42 121.37, 163.84 122.17 C160.27 122.96, 156.6 123.66, 152.89 124.27 C149.19 124.87, 145.41 125.38, 141.61 125.78 C137.82 126.18, 133.96 126.49, 130.11 126.69 C126.26 126.9, 122.37 127, 118.5 127 C114.63 127, 110.73 126.9, 106.88 126.69 C103.03 126.49, 99.18 126.18, 95.38 125.78 C91.58 125.38, 87.8 124.87, 84.1 124.27 C80.39 123.66, 76.73 122.96, 73.15 122.17 C69.57 121.37, 66.05 120.48, 62.64 119.5 C59.22 118.52, 55.88 117.45, 52.66 116.3 C49.44 115.15, 46.32 113.9, 43.32 112.59 C40.33 111.27, 37.44 109.87, 34.71 108.4 C31.97 106.93, 29.35 105.39, 26.9 103.78 C24.44 102.18, 22.12 100.5, 19.97 98.78 C17.82 97.05, 15.82 95.26, 13.99 93.43 C12.17 91.6, 10.5 89.72, 9.02 87.8 C7.54 85.88, 6.23 83.92, 5.1 81.93 C3.98 79.95, 3.03 77.92, 2.28 75.89 C1.52 73.85, 0.95 71.79, 0.57 69.72 C0.19 67.66, 0 65.57, 0 63.5 C0 61.43, 0.19 59.34, 0.57 57.28 C0.95 55.21, 1.52 53.15, 2.28 51.11 C3.03 49.08, 3.98 47.05, 5.1 45.07 C6.23 43.08, 7.54 41.12, 9.02 39.2 C10.5 37.28, 12.17 35.4, 13.99 33.57 C15.82 31.74, 17.82 29.95, 19.97 28.22 C22.12 26.5, 24.44 24.82, 26.9 23.22 C29.35 21.61, 31.97 20.07, 34.71 18.6 C37.44 17.13, 40.33 15.73, 43.32 14.41 C46.32 13.1, 49.44 11.85, 52.66 10.7 C55.88 9.55, 59.22 8.48, 62.64 7.5 C66.05 6.52, 69.57 5.63, 73.15 4.83 C76.73 4.04, 80.39 3.34, 84.1 2.73 C87.8 2.13, 91.58 1.62, 95.38 1.22 C99.18 0.82, 103.03 0.51, 106.88 0.31 C110.73 0.1, 114.63 0, 118.5 0 C122.37 0, 126.26 0.1, 130.11 0.31 C133.96 0.51, 137.82 0.82, 141.61 1.22 C145.41 1.62, 149.19 2.13, 152.89 2.73 C156.6 3.34, 160.27 4.04, 163.84 4.83 C167.42 5.63, 170.94 6.52, 174.36 7.5 C177.77 8.48, 181.11 9.55, 184.33 10.7 C187.55 11.85, 190.68 13.1, 193.67 14.41 C196.66 15.73, 199.55 17.13, 202.29 18.6 C205.02 20.07, 207.64 21.61, 210.1 23.22 C212.55 24.82, 214.87 26.5, 217.02 28.22 C219.17 29.95, 221.18 31.74, 223 33.57 C224.83 35.4, 226.49 37.28, 227.97 39.2 C229.45 41.12, 230.77 43.08, 231.89 45.07 C233.01 47.05, 233.96 49.08, 234.72 51.11 C235.47 53.15, 236.04 55.21, 236.42 57.28 C236.8 59.34, 236.9 62.46, 236.99 63.5 C237.09 64.54, 237.09 62.46, 236.99 63.5" stroke="#1e1e1e" stroke-width="1" fill="none"></path></g><g stroke-opacity="0.9" fill-opacity="0.9" transform="translate(72.21521763485202 230.10266631424565) rotate(0 56.49166488647461 40)"><text x="56.49166488647461" y="0" font-family="Virgil, Segoe UI Emoji" font-size="16px" fill="#1e1e1e" text-anchor="middle" style="white-space: pre;" direction="ltr" dominant-baseline="text-before-edge">Paralelismo de</text><text x="56.49166488647461" y="20" font-family="Virgil, Segoe UI Emoji" font-size="16px" fill="#1e1e1e" text-anchor="middle" style="white-space: pre;" direction="ltr" dominant-baseline="text-before-edge">tareas –</text><text x="56.49166488647461" y="40" font-family="Virgil, Segoe UI Emoji" font-size="16px" fill="#1e1e1e" text-anchor="middle" style="white-space: pre;" direction="ltr" dominant-baseline="text-before-edge">paralelismo de</text><text x="56.49166488647461" y="60" font-family="Virgil, Segoe UI Emoji" font-size="16px" fill="#1e1e1e" text-anchor="middle" style="white-space: pre;" direction="ltr" dominant-baseline="text-before-edge">datos</text></g></svg>