<svg version="1.1" xmlns="http://www.w3.org/2000/svg" viewBox="0 0 718.0666656494141 482" width="718.0666656494141" height="482" filter="invert(93%) hue-rotate(180deg)">
  <!-- svg-source:excalidraw -->
  
  <defs>
    <style class="style-fonts">
      @font-face {
        font-family: "Virgil";
        src: url("https://excalidraw.com/Virgil.woff2");
      }
      @font-face {
        font-family: "Cascadia";
        src: url("https://excalidraw.com/Cascadia.woff2");
      }
      @font-face {
        font-family: "Assistant";
        src: url("https://excalidraw.com/Assistant-Regular.woff2");
      }
    </style>
    
  </defs>
  <g stroke-linecap="round" transform="translate(110 10) rotate(0 60 35.5)"><path d="M120 35.5 C120 37.04, 119.83 38.6, 119.49 40.13 C119.15 41.67, 118.63 43.2, 117.96 44.69 C117.28 46.18, 116.43 47.66, 115.43 49.09 C114.43 50.51, 113.27 51.91, 111.96 53.25 C110.66 54.59, 109.19 55.89, 107.6 57.11 C106.01 58.34, 104.27 59.51, 102.43 60.6 C100.58 61.69, 98.6 62.72, 96.53 63.66 C94.45 64.6, 92.26 65.47, 90 66.24 C87.74 67.02, 85.37 67.71, 82.96 68.3 C80.55 68.89, 78.05 69.39, 75.53 69.79 C73.01 70.19, 70.42 70.49, 67.83 70.7 C65.24 70.9, 62.61 71, 60 71 C57.39 71, 54.76 70.9, 52.17 70.7 C49.58 70.49, 46.99 70.19, 44.47 69.79 C41.95 69.39, 39.45 68.89, 37.04 68.3 C34.63 67.71, 32.26 67.02, 30 66.24 C27.74 65.47, 25.55 64.6, 23.47 63.66 C21.4 62.72, 19.42 61.69, 17.57 60.6 C15.73 59.51, 13.99 58.34, 12.4 57.11 C10.81 55.89, 9.34 54.59, 8.04 53.25 C6.73 51.91, 5.57 50.51, 4.57 49.09 C3.57 47.66, 2.72 46.18, 2.04 44.69 C1.37 43.2, 0.85 41.67, 0.51 40.13 C0.17 38.6, 0 37.04, 0 35.5 C0 33.96, 0.17 32.4, 0.51 30.87 C0.85 29.33, 1.37 27.8, 2.04 26.31 C2.72 24.82, 3.57 23.34, 4.57 21.91 C5.57 20.49, 6.73 19.09, 8.04 17.75 C9.34 16.41, 10.81 15.11, 12.4 13.89 C13.99 12.66, 15.73 11.49, 17.57 10.4 C19.42 9.31, 21.4 8.28, 23.47 7.34 C25.55 6.4, 27.74 5.53, 30 4.76 C32.26 3.98, 34.63 3.29, 37.04 2.7 C39.45 2.11, 41.95 1.61, 44.47 1.21 C46.99 0.81, 49.58 0.51, 52.17 0.3 C54.76 0.1, 57.39 0, 60 0 C62.61 0, 65.24 0.1, 67.83 0.3 C70.42 0.51, 73.01 0.81, 75.53 1.21 C78.05 1.61, 80.55 2.11, 82.96 2.7 C85.37 3.29, 87.74 3.98, 90 4.76 C92.26 5.53, 94.45 6.4, 96.53 7.34 C98.6 8.28, 100.58 9.31, 102.43 10.4 C104.27 11.49, 106.01 12.66, 107.6 13.89 C109.19 15.11, 110.66 16.41, 111.96 17.75 C113.27 19.09, 114.43 20.49, 115.43 21.91 C116.43 23.34, 117.28 24.82, 117.96 26.31 C118.63 27.8, 119.15 29.33, 119.49 30.87 C119.83 32.4, 119.91 34.73, 120 35.5 C120.09 36.27, 120.09 34.73, 120 35.5" stroke="none" stroke-width="0" fill="#eebefa"></path><path d="M120 35.5 C120 37.04, 119.83 38.6, 119.49 40.13 C119.15 41.67, 118.63 43.2, 117.96 44.69 C117.28 46.18, 116.43 47.66, 115.43 49.09 C114.43 50.51, 113.27 51.91, 111.96 53.25 C110.66 54.59, 109.19 55.89, 107.6 57.11 C106.01 58.34, 104.27 59.51, 102.43 60.6 C100.58 61.69, 98.6 62.72, 96.53 63.66 C94.45 64.6, 92.26 65.47, 90 66.24 C87.74 67.02, 85.37 67.71, 82.96 68.3 C80.55 68.89, 78.05 69.39, 75.53 69.79 C73.01 70.19, 70.42 70.49, 67.83 70.7 C65.24 70.9, 62.61 71, 60 71 C57.39 71, 54.76 70.9, 52.17 70.7 C49.58 70.49, 46.99 70.19, 44.47 69.79 C41.95 69.39, 39.45 68.89, 37.04 68.3 C34.63 67.71, 32.26 67.02, 30 66.24 C27.74 65.47, 25.55 64.6, 23.47 63.66 C21.4 62.72, 19.42 61.69, 17.57 60.6 C15.73 59.51, 13.99 58.34, 12.4 57.11 C10.81 55.89, 9.34 54.59, 8.04 53.25 C6.73 51.91, 5.57 50.51, 4.57 49.09 C3.57 47.66, 2.72 46.18, 2.04 44.69 C1.37 43.2, 0.85 41.67, 0.51 40.13 C0.17 38.6, 0 37.04, 0 35.5 C0 33.96, 0.17 32.4, 0.51 30.87 C0.85 29.33, 1.37 27.8, 2.04 26.31 C2.72 24.82, 3.57 23.34, 4.57 21.91 C5.57 20.49, 6.73 19.09, 8.04 17.75 C9.34 16.41, 10.81 15.11, 12.4 13.89 C13.99 12.66, 15.73 11.49, 17.57 10.4 C19.42 9.31, 21.4 8.28, 23.47 7.34 C25.55 6.4, 27.74 5.53, 30 4.76 C32.26 3.98, 34.63 3.29, 37.04 2.7 C39.45 2.11, 41.95 1.61, 44.47 1.21 C46.99 0.81, 49.58 0.51, 52.17 0.3 C54.76 0.1, 57.39 0, 60 0 C62.61 0, 65.24 0.1, 67.83 0.3 C70.42 0.51, 73.01 0.81, 75.53 1.21 C78.05 1.61, 80.55 2.11, 82.96 2.7 C85.37 3.29, 87.74 3.98, 90 4.76 C92.26 5.53, 94.45 6.4, 96.53 7.34 C98.6 8.28, 100.58 9.31, 102.43 10.4 C104.27 11.49, 106.01 12.66, 107.6 13.89 C109.19 15.11, 110.66 16.41, 111.96 17.75 C113.27 19.09, 114.43 20.49, 115.43 21.91 C116.43 23.34, 117.28 24.82, 117.96 26.31 C118.63 27.8, 119.15 29.33, 119.49 30.87 C119.83 32.4, 119.91 34.73, 120 35.5 C120.09 36.27, 120.09 34.73, 120 35.5" stroke="#1e1e1e" stroke-width="1" fill="none"></path></g><g transform="translate(133.72359465468617 25.397709267877588) rotate(0 36.349998474121094 20)"><text x="36.349998474121094" y="0" font-family="Virgil, Segoe UI Emoji" font-size="16px" fill="#1e1e1e" text-anchor="middle" style="white-space: pre;" direction="ltr" dominant-baseline="text-before-edge">Programa</text><text x="36.349998474121094" y="20" font-family="Virgil, Segoe UI Emoji" font-size="16px" fill="#1e1e1e" text-anchor="middle" style="white-space: pre;" direction="ltr" dominant-baseline="text-before-edge">1</text></g><g stroke-linecap="round" transform="translate(170 170) rotate(0 50 35)"><path d="M17.5 0 C34.38 0, 51.25 0, 82.5 0 C94.17 0, 100 5.83, 100 17.5 C100 31.43, 100 45.36, 100 52.5 C100 64.17, 94.17 70, 82.5 70 C59.77 70, 37.04 70, 17.5 70 C5.83 70, 0 64.17, 0 52.5 C0 39.91, 0 27.31, 0 17.5 C0 5.83, 5.83 0, 17.5 0" stroke="none" stroke-width="0" fill="#a5d8ff"></path><path d="M17.5 0 C31.25 0, 44.99 0, 82.5 0 M17.5 0 C41.76 0, 66.01 0, 82.5 0 M82.5 0 C94.17 0, 100 5.83, 100 17.5 M82.5 0 C94.17 0, 100 5.83, 100 17.5 M100 17.5 C100 29.99, 100 42.48, 100 52.5 M100 17.5 C100 26.06, 100 34.61, 100 52.5 M100 52.5 C100 64.17, 94.17 70, 82.5 70 M100 52.5 C100 64.17, 94.17 70, 82.5 70 M82.5 70 C61.07 70, 39.63 70, 17.5 70 M82.5 70 C67.11 70, 51.71 70, 17.5 70 M17.5 70 C5.83 70, 0 64.17, 0 52.5 M17.5 70 C5.83 70, 0 64.17, 0 52.5 M0 52.5 C0 45.4, 0 38.3, 0 17.5 M0 52.5 C0 40.55, 0 28.61, 0 17.5 M0 17.5 C0 5.83, 5.83 0, 17.5 0 M0 17.5 C0 5.83, 5.83 0, 17.5 0" stroke="#1e1e1e" stroke-width="1" fill="none"></path></g><g transform="translate(186.3499984741211 175) rotate(0 33.650001525878906 30)"><text x="33.650001525878906" y="0" font-family="Virgil, Segoe UI Emoji" font-size="16px" fill="#1e1e1e" text-anchor="middle" style="white-space: pre;" direction="ltr" dominant-baseline="text-before-edge">Func1() {</text><text x="33.650001525878906" y="20" font-family="Virgil, Segoe UI Emoji" font-size="16px" fill="#1e1e1e" text-anchor="middle" style="white-space: pre;" direction="ltr" dominant-baseline="text-before-edge">...</text><text x="33.650001525878906" y="40" font-family="Virgil, Segoe UI Emoji" font-size="16px" fill="#1e1e1e" text-anchor="middle" style="white-space: pre;" direction="ltr" dominant-baseline="text-before-edge">}</text></g><g stroke-linecap="round" transform="translate(450 170) rotate(0 50 35)"><path d="M17.5 0 C37.63 0, 57.76 0, 82.5 0 C94.17 0, 100 5.83, 100 17.5 C100 29.76, 100 42.02, 100 52.5 C100 64.17, 94.17 70, 82.5 70 C63.52 70, 44.55 70, 17.5 70 C5.83 70, 0 64.17, 0 52.5 C0 44.86, 0 37.21, 0 17.5 C0 5.83, 5.83 0, 17.5 0" stroke="none" stroke-width="0" fill="#a5d8ff"></path><path d="M17.5 0 C40.24 0, 62.98 0, 82.5 0 M17.5 0 C30.91 0, 44.32 0, 82.5 0 M82.5 0 C94.17 0, 100 5.83, 100 17.5 M82.5 0 C94.17 0, 100 5.83, 100 17.5 M100 17.5 C100 28.8, 100 40.09, 100 52.5 M100 17.5 C100 31.18, 100 44.87, 100 52.5 M100 52.5 C100 64.17, 94.17 70, 82.5 70 M100 52.5 C100 64.17, 94.17 70, 82.5 70 M82.5 70 C57.02 70, 31.55 70, 17.5 70 M82.5 70 C64.35 70, 46.2 70, 17.5 70 M17.5 70 C5.83 70, 0 64.17, 0 52.5 M17.5 70 C5.83 70, 0 64.17, 0 52.5 M0 52.5 C0 44.6, 0 36.71, 0 17.5 M0 52.5 C0 43.53, 0 34.57, 0 17.5 M0 17.5 C0 5.83, 5.83 0, 17.5 0 M0 17.5 C0 5.83, 5.83 0, 17.5 0" stroke="#1e1e1e" stroke-width="1" fill="none"></path></g><g transform="translate(463.06666564941406 175) rotate(0 36.93333435058594 30)"><text x="36.93333435058594" y="0" font-family="Virgil, Segoe UI Emoji" font-size="16px" fill="#1e1e1e" text-anchor="middle" style="white-space: pre;" direction="ltr" dominant-baseline="text-before-edge">Func3() {</text><text x="36.93333435058594" y="20" font-family="Virgil, Segoe UI Emoji" font-size="16px" fill="#1e1e1e" text-anchor="middle" style="white-space: pre;" direction="ltr" dominant-baseline="text-before-edge">...</text><text x="36.93333435058594" y="40" font-family="Virgil, Segoe UI Emoji" font-size="16px" fill="#1e1e1e" text-anchor="middle" style="white-space: pre;" direction="ltr" dominant-baseline="text-before-edge">}</text></g><g stroke-linecap="round"><g transform="translate(330 70) rotate(0 -50 50)"><path d="M0 0 C-16.67 16.67, -83.33 83.33, -100 100 M0 0 C-16.67 16.67, -83.33 83.33, -100 100" stroke="#1e1e1e" stroke-width="1" fill="none"></path></g><g transform="translate(330 70) rotate(0 -50 50)"><path d="M-89.43 77.34 C-91.75 82.31, -94.07 87.29, -100 100 M-89.43 77.34 C-93 85, -96.57 92.65, -100 100" stroke="#1e1e1e" stroke-width="1" fill="none"></path></g><g transform="translate(330 70) rotate(0 -50 50)"><path d="M-77.34 89.43 C-82.31 91.75, -87.29 94.07, -100 100 M-77.34 89.43 C-85 93, -92.65 96.57, -100 100" stroke="#1e1e1e" stroke-width="1" fill="none"></path></g></g><mask></mask><g stroke-linecap="round"><g transform="translate(410 70) rotate(0 40 50)"><path d="M0 0 C13.33 16.67, 66.67 83.33, 80 100 M0 0 C13.33 16.67, 66.67 83.33, 80 100" stroke="#1e1e1e" stroke-width="1" fill="none"></path></g><g transform="translate(410 70) rotate(0 40 50)"><path d="M58.65 87 C63.91 90.2, 69.17 93.41, 80 100 M58.65 87 C64.05 90.29, 69.46 93.58, 80 100" stroke="#1e1e1e" stroke-width="1" fill="none"></path></g><g transform="translate(410 70) rotate(0 40 50)"><path d="M72 76.31 C73.97 82.15, 75.94 87.99, 80 100 M72 76.31 C74.03 82.31, 76.05 88.3, 80 100" stroke="#1e1e1e" stroke-width="1" fill="none"></path></g></g><mask></mask><g stroke-linecap="round"><g transform="translate(370 70) rotate(0 0 50)"><path d="M0 0 C0 16.67, 0 83.33, 0 100 M0 0 C0 16.67, 0 83.33, 0 100" stroke="#1e1e1e" stroke-width="1" fill="none"></path></g><g transform="translate(370 70) rotate(0 0 50)"><path d="M-8.55 76.51 C-6.69 81.63, -4.82 86.75, 0 100 M-8.55 76.51 C-5.57 84.71, -2.58 92.91, 0 100" stroke="#1e1e1e" stroke-width="1" fill="none"></path></g><g transform="translate(370 70) rotate(0 0 50)"><path d="M8.55 76.51 C6.69 81.63, 4.82 86.75, 0 100 M8.55 76.51 C5.57 84.71, 2.58 92.91, 0 100" stroke="#1e1e1e" stroke-width="1" fill="none"></path></g></g><mask></mask><g stroke-linecap="round" transform="translate(310 10) rotate(0 60 35.5)"><path d="M120 35.5 C120 37.04, 119.83 38.6, 119.49 40.13 C119.15 41.67, 118.63 43.2, 117.96 44.69 C117.28 46.18, 116.43 47.66, 115.43 49.09 C114.43 50.51, 113.27 51.91, 111.96 53.25 C110.66 54.59, 109.19 55.89, 107.6 57.11 C106.01 58.34, 104.27 59.51, 102.43 60.6 C100.58 61.69, 98.6 62.72, 96.53 63.66 C94.45 64.6, 92.26 65.47, 90 66.24 C87.74 67.02, 85.37 67.71, 82.96 68.3 C80.55 68.89, 78.05 69.39, 75.53 69.79 C73.01 70.19, 70.42 70.49, 67.83 70.7 C65.24 70.9, 62.61 71, 60 71 C57.39 71, 54.76 70.9, 52.17 70.7 C49.58 70.49, 46.99 70.19, 44.47 69.79 C41.95 69.39, 39.45 68.89, 37.04 68.3 C34.63 67.71, 32.26 67.02, 30 66.24 C27.74 65.47, 25.55 64.6, 23.47 63.66 C21.4 62.72, 19.42 61.69, 17.57 60.6 C15.73 59.51, 13.99 58.34, 12.4 57.11 C10.81 55.89, 9.34 54.59, 8.04 53.25 C6.73 51.91, 5.57 50.51, 4.57 49.09 C3.57 47.66, 2.72 46.18, 2.04 44.69 C1.37 43.2, 0.85 41.67, 0.51 40.13 C0.17 38.6, 0 37.04, 0 35.5 C0 33.96, 0.17 32.4, 0.51 30.87 C0.85 29.33, 1.37 27.8, 2.04 26.31 C2.72 24.82, 3.57 23.34, 4.57 21.91 C5.57 20.49, 6.73 19.09, 8.04 17.75 C9.34 16.41, 10.81 15.11, 12.4 13.89 C13.99 12.66, 15.73 11.49, 17.57 10.4 C19.42 9.31, 21.4 8.28, 23.47 7.34 C25.55 6.4, 27.74 5.53, 30 4.76 C32.26 3.98, 34.63 3.29, 37.04 2.7 C39.45 2.11, 41.95 1.61, 44.47 1.21 C46.99 0.81, 49.58 0.51, 52.17 0.3 C54.76 0.1, 57.39 0, 60 0 C62.61 0, 65.24 0.1, 67.83 0.3 C70.42 0.51, 73.01 0.81, 75.53 1.21 C78.05 1.61, 80.55 2.11, 82.96 2.7 C85.37 3.29, 87.74 3.98, 90 4.76 C92.26 5.53, 94.45 6.4, 96.53 7.34 C98.6 8.28, 100.58 9.31, 102.43 10.4 C104.27 11.49, 106.01 12.66, 107.6 13.89 C109.19 15.11, 110.66 16.41, 111.96 17.75 C113.27 19.09, 114.43 20.49, 115.43 21.91 C116.43 23.34, 117.28 24.82, 117.96 26.31 C118.63 27.8, 119.15 29.33, 119.49 30.87 C119.83 32.4, 119.91 34.73, 120 35.5 C120.09 36.27, 120.09 34.73, 120 35.5" stroke="none" stroke-width="0" fill="#eebefa"></path><path d="M120 35.5 C120 37.04, 119.83 38.6, 119.49 40.13 C119.15 41.67, 118.63 43.2, 117.96 44.69 C117.28 46.18, 116.43 47.66, 115.43 49.09 C114.43 50.51, 113.27 51.91, 111.96 53.25 C110.66 54.59, 109.19 55.89, 107.6 57.11 C106.01 58.34, 104.27 59.51, 102.43 60.6 C100.58 61.69, 98.6 62.72, 96.53 63.66 C94.45 64.6, 92.26 65.47, 90 66.24 C87.74 67.02, 85.37 67.71, 82.96 68.3 C80.55 68.89, 78.05 69.39, 75.53 69.79 C73.01 70.19, 70.42 70.49, 67.83 70.7 C65.24 70.9, 62.61 71, 60 71 C57.39 71, 54.76 70.9, 52.17 70.7 C49.58 70.49, 46.99 70.19, 44.47 69.79 C41.95 69.39, 39.45 68.89, 37.04 68.3 C34.63 67.71, 32.26 67.02, 30 66.24 C27.74 65.47, 25.55 64.6, 23.47 63.66 C21.4 62.72, 19.42 61.69, 17.57 60.6 C15.73 59.51, 13.99 58.34, 12.4 57.11 C10.81 55.89, 9.34 54.59, 8.04 53.25 C6.73 51.91, 5.57 50.51, 4.57 49.09 C3.57 47.66, 2.72 46.18, 2.04 44.69 C1.37 43.2, 0.85 41.67, 0.51 40.13 C0.17 38.6, 0 37.04, 0 35.5 C0 33.96, 0.17 32.4, 0.51 30.87 C0.85 29.33, 1.37 27.8, 2.04 26.31 C2.72 24.82, 3.57 23.34, 4.57 21.91 C5.57 20.49, 6.73 19.09, 8.04 17.75 C9.34 16.41, 10.81 15.11, 12.4 13.89 C13.99 12.66, 15.73 11.49, 17.57 10.4 C19.42 9.31, 21.4 8.28, 23.47 7.34 C25.55 6.4, 27.74 5.53, 30 4.76 C32.26 3.98, 34.63 3.29, 37.04 2.7 C39.45 2.11, 41.95 1.61, 44.47 1.21 C46.99 0.81, 49.58 0.51, 52.17 0.3 C54.76 0.1, 57.39 0, 60 0 C62.61 0, 65.24 0.1, 67.83 0.3 C70.42 0.51, 73.01 0.81, 75.53 1.21 C78.05 1.61, 80.55 2.11, 82.96 2.7 C85.37 3.29, 87.74 3.98, 90 4.76 C92.26 5.53, 94.45 6.4, 96.53 7.34 C98.6 8.28, 100.58 9.31, 102.43 10.4 C104.27 11.49, 106.01 12.66, 107.6 13.89 C109.19 15.11, 110.66 16.41, 111.96 17.75 C113.27 19.09, 114.43 20.49, 115.43 21.91 C116.43 23.34, 117.28 24.82, 117.96 26.31 C118.63 27.8, 119.15 29.33, 119.49 30.87 C119.83 32.4, 119.91 34.73, 120 35.5 C120.09 36.27, 120.09 34.73, 120 35.5" stroke="#1e1e1e" stroke-width="1" fill="none"></path></g><g transform="translate(333.72359465468617 25.397709267877588) rotate(0 36.349998474121094 20)"><text x="36.349998474121094" y="0" font-family="Virgil, Segoe UI Emoji" font-size="16px" fill="#1e1e1e" text-anchor="middle" style="white-space: pre;" direction="ltr" dominant-baseline="text-before-edge">Programa</text><text x="36.349998474121094" y="20" font-family="Virgil, Segoe UI Emoji" font-size="16px" fill="#1e1e1e" text-anchor="middle" style="white-space: pre;" direction="ltr" dominant-baseline="text-before-edge">2</text></g><g stroke-linecap="round" transform="translate(410 310) rotate(0 50 35)"><path d="M17.5 0 C34.01 0, 50.52 0, 82.5 0 C94.17 0, 100 5.83, 100 17.5 C100 29.21, 100 40.92, 100 52.5 C100 64.17, 94.17 70, 82.5 70 C60.56 70, 38.63 70, 17.5 70 C5.83 70, 0 64.17, 0 52.5 C0 39.59, 0 26.68, 0 17.5 C0 5.83, 5.83 0, 17.5 0" stroke="none" stroke-width="0" fill="#b2f2bb"></path><path d="M17.5 0 C37.73 0, 57.97 0, 82.5 0 M17.5 0 C31.36 0, 45.21 0, 82.5 0 M82.5 0 C94.17 0, 100 5.83, 100 17.5 M82.5 0 C94.17 0, 100 5.83, 100 17.5 M100 17.5 C100 28.83, 100 40.16, 100 52.5 M100 17.5 C100 27.54, 100 37.58, 100 52.5 M100 52.5 C100 64.17, 94.17 70, 82.5 70 M100 52.5 C100 64.17, 94.17 70, 82.5 70 M82.5 70 C69.13 70, 55.77 70, 17.5 70 M82.5 70 C63.44 70, 44.39 70, 17.5 70 M17.5 70 C5.83 70, 0 64.17, 0 52.5 M17.5 70 C5.83 70, 0 64.17, 0 52.5 M0 52.5 C0 43.97, 0 35.43, 0 17.5 M0 52.5 C0 44.19, 0 35.88, 0 17.5 M0 17.5 C0 5.83, 5.83 0, 17.5 0 M0 17.5 C0 5.83, 5.83 0, 17.5 0" stroke="#1e1e1e" stroke-width="1" fill="none"></path></g><g transform="translate(428.3500003814697 315) rotate(0 31.649999618530273 30)"><text x="31.649999618530273" y="0" font-family="Virgil, Segoe UI Emoji" font-size="16px" fill="#1e1e1e" text-anchor="middle" style="white-space: pre;" direction="ltr" dominant-baseline="text-before-edge">while( ){</text><text x="31.649999618530273" y="20" font-family="Virgil, Segoe UI Emoji" font-size="16px" fill="#1e1e1e" text-anchor="middle" style="white-space: pre;" direction="ltr" dominant-baseline="text-before-edge">...</text><text x="31.649999618530273" y="40" font-family="Virgil, Segoe UI Emoji" font-size="16px" fill="#1e1e1e" text-anchor="middle" style="white-space: pre;" direction="ltr" dominant-baseline="text-before-edge">}</text></g><g stroke-linecap="round" transform="translate(170 430) rotate(0 20 21)"><path d="M40 21 C40 22.22, 39.9 23.45, 39.7 24.65 C39.5 25.84, 39.19 27.04, 38.79 28.18 C38.4 29.32, 37.9 30.45, 37.32 31.5 C36.74 32.55, 36.07 33.57, 35.32 34.5 C34.58 35.43, 33.74 36.31, 32.86 37.09 C31.97 37.87, 31 38.58, 30 39.19 C29 39.79, 27.93 40.32, 26.84 40.73 C25.75 41.15, 24.61 41.47, 23.47 41.68 C22.33 41.89, 21.16 42, 20 42 C18.84 42, 17.67 41.89, 16.53 41.68 C15.39 41.47, 14.25 41.15, 13.16 40.73 C12.07 40.32, 11 39.79, 10 39.19 C9 38.58, 8.03 37.87, 7.14 37.09 C6.26 36.31, 5.42 35.43, 4.68 34.5 C3.93 33.57, 3.26 32.55, 2.68 31.5 C2.1 30.45, 1.6 29.32, 1.21 28.18 C0.81 27.04, 0.5 25.84, 0.3 24.65 C0.1 23.45, 0 22.22, 0 21 C0 19.78, 0.1 18.55, 0.3 17.35 C0.5 16.16, 0.81 14.96, 1.21 13.82 C1.6 12.68, 2.1 11.55, 2.68 10.5 C3.26 9.45, 3.93 8.43, 4.68 7.5 C5.42 6.57, 6.26 5.69, 7.14 4.91 C8.03 4.13, 9 3.42, 10 2.81 C11 2.21, 12.07 1.68, 13.16 1.27 C14.25 0.85, 15.39 0.53, 16.53 0.32 C17.67 0.11, 18.84 0, 20 0 C21.16 0, 22.33 0.11, 23.47 0.32 C24.61 0.53, 25.75 0.85, 26.84 1.27 C27.93 1.68, 29 2.21, 30 2.81 C31 3.42, 31.97 4.13, 32.86 4.91 C33.74 5.69, 34.58 6.57, 35.32 7.5 C36.07 8.43, 36.74 9.45, 37.32 10.5 C37.9 11.55, 38.4 12.68, 38.79 13.82 C39.19 14.96, 39.5 16.16, 39.7 17.35 C39.9 18.55, 39.95 20.39, 40 21 C40.05 21.61, 40.05 20.39, 40 21" stroke="none" stroke-width="0" fill="#ffec99"></path><path d="M40 21 C40 22.22, 39.9 23.45, 39.7 24.65 C39.5 25.84, 39.19 27.04, 38.79 28.18 C38.4 29.32, 37.9 30.45, 37.32 31.5 C36.74 32.55, 36.07 33.57, 35.32 34.5 C34.58 35.43, 33.74 36.31, 32.86 37.09 C31.97 37.87, 31 38.58, 30 39.19 C29 39.79, 27.93 40.32, 26.84 40.73 C25.75 41.15, 24.61 41.47, 23.47 41.68 C22.33 41.89, 21.16 42, 20 42 C18.84 42, 17.67 41.89, 16.53 41.68 C15.39 41.47, 14.25 41.15, 13.16 40.73 C12.07 40.32, 11 39.79, 10 39.19 C9 38.58, 8.03 37.87, 7.14 37.09 C6.26 36.31, 5.42 35.43, 4.68 34.5 C3.93 33.57, 3.26 32.55, 2.68 31.5 C2.1 30.45, 1.6 29.32, 1.21 28.18 C0.81 27.04, 0.5 25.84, 0.3 24.65 C0.1 23.45, 0 22.22, 0 21 C0 19.78, 0.1 18.55, 0.3 17.35 C0.5 16.16, 0.81 14.96, 1.21 13.82 C1.6 12.68, 2.1 11.55, 2.68 10.5 C3.26 9.45, 3.93 8.43, 4.68 7.5 C5.42 6.57, 6.26 5.69, 7.14 4.91 C8.03 4.13, 9 3.42, 10 2.81 C11 2.21, 12.07 1.68, 13.16 1.27 C14.25 0.85, 15.39 0.53, 16.53 0.32 C17.67 0.11, 18.84 0, 20 0 C21.16 0, 22.33 0.11, 23.47 0.32 C24.61 0.53, 25.75 0.85, 26.84 1.27 C27.93 1.68, 29 2.21, 30 2.81 C31 3.42, 31.97 4.13, 32.86 4.91 C33.74 5.69, 34.58 6.57, 35.32 7.5 C36.07 8.43, 36.74 9.45, 37.32 10.5 C37.9 11.55, 38.4 12.68, 38.79 13.82 C39.19 14.96, 39.5 16.16, 39.7 17.35 C39.9 18.55, 39.95 20.39, 40 21 C40.05 21.61, 40.05 20.39, 40 21" stroke="#1e1e1e" stroke-width="1" fill="none"></path></g><g transform="translate(185.73286437626894 441.1507575950825) rotate(0 4.125 10)"><text x="4.125" y="0" font-family="Virgil, Segoe UI Emoji" font-size="16px" fill="#1e1e1e" text-anchor="middle" style="white-space: pre;" direction="ltr" dominant-baseline="text-before-edge">*</text></g><g stroke-linecap="round" transform="translate(230 430) rotate(0 20 21)"><path d="M40 21 C40 22.22, 39.9 23.45, 39.7 24.65 C39.5 25.84, 39.19 27.04, 38.79 28.18 C38.4 29.32, 37.9 30.45, 37.32 31.5 C36.74 32.55, 36.07 33.57, 35.32 34.5 C34.58 35.43, 33.74 36.31, 32.86 37.09 C31.97 37.87, 31 38.58, 30 39.19 C29 39.79, 27.93 40.32, 26.84 40.73 C25.75 41.15, 24.61 41.47, 23.47 41.68 C22.33 41.89, 21.16 42, 20 42 C18.84 42, 17.67 41.89, 16.53 41.68 C15.39 41.47, 14.25 41.15, 13.16 40.73 C12.07 40.32, 11 39.79, 10 39.19 C9 38.58, 8.03 37.87, 7.14 37.09 C6.26 36.31, 5.42 35.43, 4.68 34.5 C3.93 33.57, 3.26 32.55, 2.68 31.5 C2.1 30.45, 1.6 29.32, 1.21 28.18 C0.81 27.04, 0.5 25.84, 0.3 24.65 C0.1 23.45, 0 22.22, 0 21 C0 19.78, 0.1 18.55, 0.3 17.35 C0.5 16.16, 0.81 14.96, 1.21 13.82 C1.6 12.68, 2.1 11.55, 2.68 10.5 C3.26 9.45, 3.93 8.43, 4.68 7.5 C5.42 6.57, 6.26 5.69, 7.14 4.91 C8.03 4.13, 9 3.42, 10 2.81 C11 2.21, 12.07 1.68, 13.16 1.27 C14.25 0.85, 15.39 0.53, 16.53 0.32 C17.67 0.11, 18.84 0, 20 0 C21.16 0, 22.33 0.11, 23.47 0.32 C24.61 0.53, 25.75 0.85, 26.84 1.27 C27.93 1.68, 29 2.21, 30 2.81 C31 3.42, 31.97 4.13, 32.86 4.91 C33.74 5.69, 34.58 6.57, 35.32 7.5 C36.07 8.43, 36.74 9.45, 37.32 10.5 C37.9 11.55, 38.4 12.68, 38.79 13.82 C39.19 14.96, 39.5 16.16, 39.7 17.35 C39.9 18.55, 39.95 20.39, 40 21 C40.05 21.61, 40.05 20.39, 40 21" stroke="none" stroke-width="0" fill="#ffec99"></path><path d="M40 21 C40 22.22, 39.9 23.45, 39.7 24.65 C39.5 25.84, 39.19 27.04, 38.79 28.18 C38.4 29.32, 37.9 30.45, 37.32 31.5 C36.74 32.55, 36.07 33.57, 35.32 34.5 C34.58 35.43, 33.74 36.31, 32.86 37.09 C31.97 37.87, 31 38.58, 30 39.19 C29 39.79, 27.93 40.32, 26.84 40.73 C25.75 41.15, 24.61 41.47, 23.47 41.68 C22.33 41.89, 21.16 42, 20 42 C18.84 42, 17.67 41.89, 16.53 41.68 C15.39 41.47, 14.25 41.15, 13.16 40.73 C12.07 40.32, 11 39.79, 10 39.19 C9 38.58, 8.03 37.87, 7.14 37.09 C6.26 36.31, 5.42 35.43, 4.68 34.5 C3.93 33.57, 3.26 32.55, 2.68 31.5 C2.1 30.45, 1.6 29.32, 1.21 28.18 C0.81 27.04, 0.5 25.84, 0.3 24.65 C0.1 23.45, 0 22.22, 0 21 C0 19.78, 0.1 18.55, 0.3 17.35 C0.5 16.16, 0.81 14.96, 1.21 13.82 C1.6 12.68, 2.1 11.55, 2.68 10.5 C3.26 9.45, 3.93 8.43, 4.68 7.5 C5.42 6.57, 6.26 5.69, 7.14 4.91 C8.03 4.13, 9 3.42, 10 2.81 C11 2.21, 12.07 1.68, 13.16 1.27 C14.25 0.85, 15.39 0.53, 16.53 0.32 C17.67 0.11, 18.84 0, 20 0 C21.16 0, 22.33 0.11, 23.47 0.32 C24.61 0.53, 25.75 0.85, 26.84 1.27 C27.93 1.68, 29 2.21, 30 2.81 C31 3.42, 31.97 4.13, 32.86 4.91 C33.74 5.69, 34.58 6.57, 35.32 7.5 C36.07 8.43, 36.74 9.45, 37.32 10.5 C37.9 11.55, 38.4 12.68, 38.79 13.82 C39.19 14.96, 39.5 16.16, 39.7 17.35 C39.9 18.55, 39.95 20.39, 40 21 C40.05 21.61, 40.05 20.39, 40 21" stroke="#1e1e1e" stroke-width="1" fill="none"></path></g><g transform="translate(244.85786437626894 441.1507575950825) rotate(0 5 10)"><text x="5" y="0" font-family="Virgil, Segoe UI Emoji" font-size="16px" fill="#1e1e1e" text-anchor="middle" style="white-space: pre;" direction="ltr" dominant-baseline="text-before-edge">+</text></g><g stroke-linecap="round" transform="translate(290 430) rotate(0 20 21)"><path d="M40 21 C40 22.22, 39.9 23.45, 39.7 24.65 C39.5 25.84, 39.19 27.04, 38.79 28.18 C38.4 29.32, 37.9 30.45, 37.32 31.5 C36.74 32.55, 36.07 33.57, 35.32 34.5 C34.58 35.43, 33.74 36.31, 32.86 37.09 C31.97 37.87, 31 38.58, 30 39.19 C29 39.79, 27.93 40.32, 26.84 40.73 C25.75 41.15, 24.61 41.47, 23.47 41.68 C22.33 41.89, 21.16 42, 20 42 C18.84 42, 17.67 41.89, 16.53 41.68 C15.39 41.47, 14.25 41.15, 13.16 40.73 C12.07 40.32, 11 39.79, 10 39.19 C9 38.58, 8.03 37.87, 7.14 37.09 C6.26 36.31, 5.42 35.43, 4.68 34.5 C3.93 33.57, 3.26 32.55, 2.68 31.5 C2.1 30.45, 1.6 29.32, 1.21 28.18 C0.81 27.04, 0.5 25.84, 0.3 24.65 C0.1 23.45, 0 22.22, 0 21 C0 19.78, 0.1 18.55, 0.3 17.35 C0.5 16.16, 0.81 14.96, 1.21 13.82 C1.6 12.68, 2.1 11.55, 2.68 10.5 C3.26 9.45, 3.93 8.43, 4.68 7.5 C5.42 6.57, 6.26 5.69, 7.14 4.91 C8.03 4.13, 9 3.42, 10 2.81 C11 2.21, 12.07 1.68, 13.16 1.27 C14.25 0.85, 15.39 0.53, 16.53 0.32 C17.67 0.11, 18.84 0, 20 0 C21.16 0, 22.33 0.11, 23.47 0.32 C24.61 0.53, 25.75 0.85, 26.84 1.27 C27.93 1.68, 29 2.21, 30 2.81 C31 3.42, 31.97 4.13, 32.86 4.91 C33.74 5.69, 34.58 6.57, 35.32 7.5 C36.07 8.43, 36.74 9.45, 37.32 10.5 C37.9 11.55, 38.4 12.68, 38.79 13.82 C39.19 14.96, 39.5 16.16, 39.7 17.35 C39.9 18.55, 39.95 20.39, 40 21 C40.05 21.61, 40.05 20.39, 40 21" stroke="none" stroke-width="0" fill="#ffec99"></path><path d="M40 21 C40 22.22, 39.9 23.45, 39.7 24.65 C39.5 25.84, 39.19 27.04, 38.79 28.18 C38.4 29.32, 37.9 30.45, 37.32 31.5 C36.74 32.55, 36.07 33.57, 35.32 34.5 C34.58 35.43, 33.74 36.31, 32.86 37.09 C31.97 37.87, 31 38.58, 30 39.19 C29 39.79, 27.93 40.32, 26.84 40.73 C25.75 41.15, 24.61 41.47, 23.47 41.68 C22.33 41.89, 21.16 42, 20 42 C18.84 42, 17.67 41.89, 16.53 41.68 C15.39 41.47, 14.25 41.15, 13.16 40.73 C12.07 40.32, 11 39.79, 10 39.19 C9 38.58, 8.03 37.87, 7.14 37.09 C6.26 36.31, 5.42 35.43, 4.68 34.5 C3.93 33.57, 3.26 32.55, 2.68 31.5 C2.1 30.45, 1.6 29.32, 1.21 28.18 C0.81 27.04, 0.5 25.84, 0.3 24.65 C0.1 23.45, 0 22.22, 0 21 C0 19.78, 0.1 18.55, 0.3 17.35 C0.5 16.16, 0.81 14.96, 1.21 13.82 C1.6 12.68, 2.1 11.55, 2.68 10.5 C3.26 9.45, 3.93 8.43, 4.68 7.5 C5.42 6.57, 6.26 5.69, 7.14 4.91 C8.03 4.13, 9 3.42, 10 2.81 C11 2.21, 12.07 1.68, 13.16 1.27 C14.25 0.85, 15.39 0.53, 16.53 0.32 C17.67 0.11, 18.84 0, 20 0 C21.16 0, 22.33 0.11, 23.47 0.32 C24.61 0.53, 25.75 0.85, 26.84 1.27 C27.93 1.68, 29 2.21, 30 2.81 C31 3.42, 31.97 4.13, 32.86 4.91 C33.74 5.69, 34.58 6.57, 35.32 7.5 C36.07 8.43, 36.74 9.45, 37.32 10.5 C37.9 11.55, 38.4 12.68, 38.79 13.82 C39.19 14.96, 39.5 16.16, 39.7 17.35 C39.9 18.55, 39.95 20.39, 40 21 C40.05 21.61, 40.05 20.39, 40 21" stroke="#1e1e1e" stroke-width="1" fill="none"></path></g><g transform="translate(305.85786437626894 441.1507575950825) rotate(0 4 10)"><text x="4" y="0" font-family="Virgil, Segoe UI Emoji" font-size="16px" fill="#1e1e1e" text-anchor="middle" style="white-space: pre;" direction="ltr" dominant-baseline="text-before-edge">/</text></g><g stroke-linecap="round"><g transform="translate(350 230) rotate(0 -40 40)"><path d="M0 0 C-13.33 13.33, -66.67 66.67, -80 80 M0 0 C-13.33 13.33, -66.67 66.67, -80 80" stroke="#1e1e1e" stroke-width="1" fill="none"></path></g><g transform="translate(350 230) rotate(0 -40 40)"><path d="M-69.43 57.34 C-73.43 65.91, -77.42 74.47, -80 80 M-69.43 57.34 C-73.5 66.06, -77.56 74.78, -80 80" stroke="#1e1e1e" stroke-width="1" fill="none"></path></g><g transform="translate(350 230) rotate(0 -40 40)"><path d="M-57.34 69.43 C-65.91 73.43, -74.47 77.42, -80 80 M-57.34 69.43 C-66.06 73.5, -74.78 77.56, -80 80" stroke="#1e1e1e" stroke-width="1" fill="none"></path></g></g><mask></mask><g stroke-linecap="round"><g transform="translate(370 230) rotate(0 40 40)"><path d="M0 0 C13.33 13.33, 66.67 66.67, 80 80 M0 0 C13.33 13.33, 66.67 66.67, 80 80" stroke="#1e1e1e" stroke-width="1" fill="none"></path></g><g transform="translate(370 230) rotate(0 40 40)"><path d="M57.34 69.43 C63.22 72.17, 69.09 74.91, 80 80 M57.34 69.43 C61.93 71.57, 66.51 73.71, 80 80" stroke="#1e1e1e" stroke-width="1" fill="none"></path></g><g transform="translate(370 230) rotate(0 40 40)"><path d="M69.43 57.34 C72.17 63.22, 74.91 69.09, 80 80 M69.43 57.34 C71.57 61.93, 73.71 66.51, 80 80" stroke="#1e1e1e" stroke-width="1" fill="none"></path></g></g><mask></mask><g stroke-linecap="round"><g transform="translate(250 370) rotate(0 -30 30)"><path d="M0 0 C-10 10, -50 50, -60 60 M0 0 C-10 10, -50 50, -60 60" stroke="#1e1e1e" stroke-width="1" fill="none"></path></g><g transform="translate(250 370) rotate(0 -30 30)"><path d="M-49.43 37.34 C-52.46 43.82, -55.48 50.31, -60 60 M-49.43 37.34 C-51.8 42.42, -54.17 47.5, -60 60" stroke="#1e1e1e" stroke-width="1" fill="none"></path></g><g transform="translate(250 370) rotate(0 -30 30)"><path d="M-37.34 49.43 C-43.82 52.46, -50.31 55.48, -60 60 M-37.34 49.43 C-42.42 51.8, -47.5 54.17, -60 60" stroke="#1e1e1e" stroke-width="1" fill="none"></path></g></g><mask></mask><g stroke-linecap="round"><g transform="translate(250 370) rotate(0 0 30)"><path d="M0 0 C0 10, 0 50, 0 60 M0 0 C0 10, 0 50, 0 60" stroke="#1e1e1e" stroke-width="1" fill="none"></path></g><g transform="translate(250 370) rotate(0 0 30)"><path d="M-8.55 36.51 C-5.85 43.92, -3.15 51.34, 0 60 M-8.55 36.51 C-5.8 44.07, -3.05 51.63, 0 60" stroke="#1e1e1e" stroke-width="1" fill="none"></path></g><g transform="translate(250 370) rotate(0 0 30)"><path d="M8.55 36.51 C5.85 43.92, 3.15 51.34, 0 60 M8.55 36.51 C5.8 44.07, 3.05 51.63, 0 60" stroke="#1e1e1e" stroke-width="1" fill="none"></path></g></g><mask></mask><g stroke-linecap="round"><g transform="translate(250 370) rotate(0 30 30)"><path d="M0 0 C10 10, 50 50, 60 60 M0 0 C10 10, 50 50, 60 60" stroke="#1e1e1e" stroke-width="1" fill="none"></path></g><g transform="translate(250 370) rotate(0 30 30)"><path d="M37.34 49.43 C46.2 53.56, 55.05 57.69, 60 60 M37.34 49.43 C44.79 52.91, 52.23 56.38, 60 60" stroke="#1e1e1e" stroke-width="1" fill="none"></path></g><g transform="translate(250 370) rotate(0 30 30)"><path d="M49.43 37.34 C53.56 46.2, 57.69 55.05, 60 60 M49.43 37.34 C52.91 44.79, 56.38 52.23, 60 60" stroke="#1e1e1e" stroke-width="1" fill="none"></path></g></g><mask></mask><g stroke-linecap="round" transform="translate(310 170) rotate(0 50 35)"><path d="M17.5 0 C36.54 0, 55.58 0, 82.5 0 C94.17 0, 100 5.83, 100 17.5 C100 28.67, 100 39.84, 100 52.5 C100 64.17, 94.17 70, 82.5 70 C57.52 70, 32.53 70, 17.5 70 C5.83 70, 0 64.17, 0 52.5 C0 43.97, 0 35.44, 0 17.5 C0 5.83, 5.83 0, 17.5 0" stroke="none" stroke-width="0" fill="#a5d8ff"></path><path d="M17.5 0 C40.04 0, 62.59 0, 82.5 0 M17.5 0 C34.49 0, 51.48 0, 82.5 0 M82.5 0 C94.17 0, 100 5.83, 100 17.5 M82.5 0 C94.17 0, 100 5.83, 100 17.5 M100 17.5 C100 28.8, 100 40.11, 100 52.5 M100 17.5 C100 28.37, 100 39.25, 100 52.5 M100 52.5 C100 64.17, 94.17 70, 82.5 70 M100 52.5 C100 64.17, 94.17 70, 82.5 70 M82.5 70 C56.59 70, 30.67 70, 17.5 70 M82.5 70 C61.7 70, 40.89 70, 17.5 70 M17.5 70 C5.83 70, 0 64.17, 0 52.5 M17.5 70 C5.83 70, 0 64.17, 0 52.5 M0 52.5 C0 44.26, 0 36.01, 0 17.5 M0 52.5 C0 39.44, 0 26.39, 0 17.5 M0 17.5 C0 5.83, 5.83 0, 17.5 0 M0 17.5 C0 5.83, 5.83 0, 17.5 0" stroke="#1e1e1e" stroke-width="1" fill="none"></path></g><g transform="translate(322.81666564941406 175) rotate(0 37.18333435058594 30)"><text x="37.18333435058594" y="0" font-family="Virgil, Segoe UI Emoji" font-size="16px" fill="#1e1e1e" text-anchor="middle" style="white-space: pre;" direction="ltr" dominant-baseline="text-before-edge">Func2() {</text><text x="37.18333435058594" y="20" font-family="Virgil, Segoe UI Emoji" font-size="16px" fill="#1e1e1e" text-anchor="middle" style="white-space: pre;" direction="ltr" dominant-baseline="text-before-edge">...</text><text x="37.18333435058594" y="40" font-family="Virgil, Segoe UI Emoji" font-size="16px" fill="#1e1e1e" text-anchor="middle" style="white-space: pre;" direction="ltr" dominant-baseline="text-before-edge">}</text></g><g stroke-linecap="round" transform="translate(210 310) rotate(0 50 35)"><path d="M17.5 0 C40.01 0, 62.51 0, 82.5 0 C94.17 0, 100 5.83, 100 17.5 C100 30.44, 100 43.38, 100 52.5 C100 64.17, 94.17 70, 82.5 70 C64.86 70, 47.22 70, 17.5 70 C5.83 70, 0 64.17, 0 52.5 C0 43.54, 0 34.59, 0 17.5 C0 5.83, 5.83 0, 17.5 0" stroke="none" stroke-width="0" fill="#b2f2bb"></path><path d="M17.5 0 C43.47 0, 69.44 0, 82.5 0 M17.5 0 C31.31 0, 45.11 0, 82.5 0 M82.5 0 C94.17 0, 100 5.83, 100 17.5 M82.5 0 C94.17 0, 100 5.83, 100 17.5 M100 17.5 C100 27.94, 100 38.38, 100 52.5 M100 17.5 C100 26.82, 100 36.14, 100 52.5 M100 52.5 C100 64.17, 94.17 70, 82.5 70 M100 52.5 C100 64.17, 94.17 70, 82.5 70 M82.5 70 C68.17 70, 53.83 70, 17.5 70 M82.5 70 C65.29 70, 48.09 70, 17.5 70 M17.5 70 C5.83 70, 0 64.17, 0 52.5 M17.5 70 C5.83 70, 0 64.17, 0 52.5 M0 52.5 C0 38.75, 0 24.99, 0 17.5 M0 52.5 C0 44.25, 0 36, 0 17.5 M0 17.5 C0 5.83, 5.83 0, 17.5 0 M0 17.5 C0 5.83, 5.83 0, 17.5 0" stroke="#1e1e1e" stroke-width="1" fill="none"></path></g><g transform="translate(229.63333320617676 315) rotate(0 30.366666793823242 30)"><text x="30.366666793823242" y="0" font-family="Virgil, Segoe UI Emoji" font-size="16px" fill="#1e1e1e" text-anchor="middle" style="white-space: pre;" direction="ltr" dominant-baseline="text-before-edge">for ( ){</text><text x="30.366666793823242" y="20" font-family="Virgil, Segoe UI Emoji" font-size="16px" fill="#1e1e1e" text-anchor="middle" style="white-space: pre;" direction="ltr" dominant-baseline="text-before-edge">...</text><text x="30.366666793823242" y="40" font-family="Virgil, Segoe UI Emoji" font-size="16px" fill="#1e1e1e" text-anchor="middle" style="white-space: pre;" direction="ltr" dominant-baseline="text-before-edge">}</text></g><g stroke-linecap="round"><g transform="translate(610 10) rotate(0 0 230)"><path d="M0 0 C0 179.33, 0 358.65, 0 460 M0 0 C0 162.77, 0 325.54, 0 460" stroke="#f08c00" stroke-width="4" fill="none"></path></g></g><mask></mask><g transform="translate(630 170) rotate(0 27.25 20)"><text x="27.25" y="0" font-family="Virgil, Segoe UI Emoji" font-size="16px" fill="#f08c00" text-anchor="middle" style="white-space: pre;" direction="ltr" dominant-baseline="text-before-edge">Grano </text><text x="27.25" y="20" font-family="Virgil, Segoe UI Emoji" font-size="16px" fill="#f08c00" text-anchor="middle" style="white-space: pre;" direction="ltr" dominant-baseline="text-before-edge">Medio</text></g><g transform="translate(630 310) rotate(0 39.03333282470703 30)"><text x="39.03333282470703" y="0" font-family="Virgil, Segoe UI Emoji" font-size="16px" fill="#f08c00" text-anchor="middle" style="white-space: pre;" direction="ltr" dominant-baseline="text-before-edge">Grano </text><text x="39.03333282470703" y="20" font-family="Virgil, Segoe UI Emoji" font-size="16px" fill="#f08c00" text-anchor="middle" style="white-space: pre;" direction="ltr" dominant-baseline="text-before-edge">Medio-Fino</text><text x="39.03333282470703" y="40" font-family="Virgil, Segoe UI Emoji" font-size="16px" fill="#f08c00" text-anchor="middle" style="white-space: pre;" direction="ltr" dominant-baseline="text-before-edge"></text></g><g transform="translate(630 410) rotate(0 23.25 20)"><text x="23.25" y="0" font-family="Virgil, Segoe UI Emoji" font-size="16px" fill="#f08c00" text-anchor="middle" style="white-space: pre;" direction="ltr" dominant-baseline="text-before-edge">Grano</text><text x="23.25" y="20" font-family="Virgil, Segoe UI Emoji" font-size="16px" fill="#f08c00" text-anchor="middle" style="white-space: pre;" direction="ltr" dominant-baseline="text-before-edge">Fino</text></g><g transform="translate(630 30) rotate(0 27.441667556762695 20)"><text x="27.441667556762695" y="0" font-family="Virgil, Segoe UI Emoji" font-size="16px" fill="#f08c00" text-anchor="middle" style="white-space: pre;" direction="ltr" dominant-baseline="text-before-edge">Grano</text><text x="27.441667556762695" y="20" font-family="Virgil, Segoe UI Emoji" font-size="16px" fill="#f08c00" text-anchor="middle" style="white-space: pre;" direction="ltr" dominant-baseline="text-before-edge">Grueso</text></g><g transform="translate(10 430) rotate(0 45.54999923706055 10)"><text x="45.54999923706055" y="0" font-family="Virgil, Segoe UI Emoji" font-size="16px" fill="#1971c2" text-anchor="middle" style="white-space: pre;" direction="ltr" dominant-baseline="text-before-edge">Operaciones</text></g><g transform="translate(10 330) rotate(0 59.43333435058594 10)"><text x="59.43333435058594" y="0" font-family="Virgil, Segoe UI Emoji" font-size="16px" fill="#1971c2" text-anchor="middle" style="white-space: pre;" direction="ltr" dominant-baseline="text-before-edge">Bucles(bloques)</text></g><g transform="translate(10 210) rotate(0 35.516666412353516 10)"><text x="35.516666412353516" y="0" font-family="Virgil, Segoe UI Emoji" font-size="16px" fill="#1971c2" text-anchor="middle" style="white-space: pre;" direction="ltr" dominant-baseline="text-before-edge">Funciones</text></g><g transform="translate(10 30) rotate(0 40.69166564941406 10)"><text x="40.69166564941406" y="0" font-family="Virgil, Segoe UI Emoji" font-size="16px" fill="#1971c2" text-anchor="middle" style="white-space: pre;" direction="ltr" dominant-baseline="text-before-edge">Programas</text></g></svg>